<svg width="100" height="100" viewBox="0 0 100 100" fill="none" xmlns="http://www.w3.org/2000/svg">
<path d="M35.6862 9.46894C39.0204 11.012 42.976 10.1091 45.3106 7.27224C47.7399 4.32011 52.2601 4.32011 54.6894 7.27224C57.024 10.1091 60.9796 11.012 64.3138 9.46894C67.7835 7.86324 71.856 9.82445 72.7639 13.5383C73.6364 17.1072 76.8085 19.6369 80.4821 19.6933C84.3048 19.7521 87.1231 23.286 86.3297 27.026C85.5673 30.62 87.3277 34.2756 90.613 35.9203C94.0317 37.6319 95.0375 42.0387 92.7 45.064C90.4537 47.9713 90.4537 52.0287 92.7 54.936C95.0375 57.9613 94.0317 62.3681 90.613 64.0797C87.3277 65.7244 85.5673 69.38 86.3297 72.974C87.1231 76.714 84.3048 80.2479 80.4821 80.3067C76.8085 80.3631 73.6364 82.8928 72.7639 86.4617C71.856 90.1756 67.7835 92.1368 64.3138 90.5311C60.9796 88.988 57.024 89.8909 54.6894 92.7278C52.2601 95.6799 47.7399 95.6799 45.3106 92.7278C42.976 89.8909 39.0204 88.988 35.6862 90.5311C32.2165 92.1368 28.144 90.1756 27.2361 86.4617C26.3636 82.8928 23.1915 80.3631 19.5179 80.3067C15.6952 80.2479 12.8769 76.714 13.6703 72.974C14.4327 69.38 12.6723 65.7244 9.38701 64.0797C5.96831 62.3681 4.96249 57.9613 7.30001 54.936C9.5463 52.0287 9.5463 47.9713 7.30001 45.064C4.96249 42.0387 5.96831 37.6319 9.38701 35.9203C12.6723 34.2756 14.4327 30.62 13.6703 27.026C12.8769 23.286 15.6952 19.7521 19.5179 19.6933C23.1915 19.6369 26.3636 17.1072 27.2361 13.5383C28.144 9.82445 32.2165 7.86324 35.6862 9.46894Z" fill="white" stroke="black" stroke-width="2"/>
<path d="M56.2105 55.0752V50.2541C56.2105 45.8574 52.6463 42.2932 48.2497 42.2932V42.2932C44.7218 42.2932 41.6147 44.6151 40.6151 47.9984L39.5112 51.7347C38.2086 56.1437 39.2985 60.9129 42.3872 64.3183L44.1073 66.2148C48.9134 71.5139 56.4747 73.3282 63.162 70.787V70.787C68.0415 68.9328 71.8298 64.9844 73.4804 60.0323L74.4877 57.0104C76.5023 50.9668 75.9843 44.365 73.0518 38.7095V38.7095C69.3516 31.5733 62.2692 26.8153 54.2637 26.0875L53.5219 26.0201C46.3885 25.3716 39.321 27.823 34.1212 32.7491L33.3369 33.492C29.8507 36.7948 27.2843 41.0001 25.92 45.6045V45.6045C23.4637 53.8948 24.9836 62.9343 30.0715 69.9253L33.7647 75" stroke="#F36B9D" stroke-width="4.70588" stroke-linecap="round"/>
</svg>
