<svg width="510" height="100" viewBox="0 0 510 100" fill="none" xmlns="http://www.w3.org/2000/svg">
<mask id="path-1-outside-1_1_26" maskUnits="userSpaceOnUse" x="112" y="9" width="398" height="82" fill="black">
<rect fill="white" x="112" y="9" width="398" height="82"/>
<path d="M148.622 64.6424C148.622 65.7644 148.755 66.6246 149.021 67.223C149.125 67.4094 149.235 67.5814 149.351 67.7387C149.829 68.3845 150.586 68.776 151.384 68.8701C151.587 68.8941 151.797 68.906 152.014 68.906C153.227 68.906 154.21 69.8889 154.21 71.1012V82.5164C154.21 86.6495 150.859 90 146.726 90C144.398 90 142.203 89.5138 140.141 88.5414C138.145 87.4942 136.382 86.1103 134.852 84.3899C133.322 82.6695 132.091 80.6872 131.16 78.4432C130.295 76.1244 129.863 73.6559 129.863 71.0379V43.677C129.863 39.0204 126.088 35.2454 121.432 35.2454C116.775 35.2454 113 31.4705 113 26.8139V24.6985C113 18.8735 117.722 14.1515 123.547 14.1515H154.838C160.663 14.1515 165.385 18.8735 165.385 24.6985V26.8638C165.385 31.4929 161.633 35.2454 157.004 35.2454C152.375 35.2454 148.622 38.998 148.622 43.6271V64.6424Z"/>
<path d="M189.451 14.2637C190.628 14.2637 191.582 13.3092 191.582 12.1318C191.582 10.9545 192.537 10 193.714 10H208.209C209.387 10 210.341 10.9545 210.341 12.1318C210.341 13.3092 211.296 14.2637 212.473 14.2637H222.301C228.095 14.2637 232.792 18.9606 232.792 24.7546V32.4017C232.792 33.9722 231.519 35.2454 229.948 35.2454C228.378 35.2454 227.105 36.5186 227.105 38.0892V64.7546C227.105 65.8766 227.238 66.7368 227.504 67.3352C227.836 67.9336 228.269 68.3824 228.801 68.6816C229.333 68.906 229.932 69.0182 230.597 69.0182C231.809 69.0182 232.792 70.0011 232.792 71.2134V82.5164C232.792 86.6495 229.442 90 225.309 90C221.45 90 218.39 89.1772 216.129 87.5316C213.933 85.8859 212.237 83.7915 211.04 81.2483C209.909 78.6302 209.177 75.713 208.845 72.4965C208.78 71.6982 208.723 70.8999 208.674 70.1017C208.422 65.9763 205.095 62.6227 200.962 62.6227C196.829 62.6227 193.478 65.9733 193.478 70.1063V71.1501C193.478 73.7681 193.013 76.2366 192.081 78.5554C191.217 80.7994 190.019 82.7817 188.489 84.5021C186.959 86.2225 185.163 87.569 183.101 88.5414C181.039 89.5138 178.877 90 176.615 90C172.427 90 169.032 86.6048 169.032 82.4166V71.2134C169.032 70.0011 170.015 69.0182 171.227 69.0182C171.892 69.0182 172.491 68.906 173.023 68.6816C173.555 68.3824 173.954 67.9336 174.22 67.3352C174.553 66.7368 174.719 65.8766 174.719 64.7546V38.0892C174.719 36.5186 173.446 35.2454 171.876 35.2454C170.305 35.2454 169.032 33.9722 169.032 32.4017V24.7546C169.032 18.9606 173.729 14.2637 179.523 14.2637H189.451ZM205.248 41.641C207.014 41.641 208.445 40.2093 208.445 38.4432C208.445 36.6771 207.014 35.2454 205.248 35.2454H196.676C194.91 35.2454 193.478 36.6771 193.478 38.4432C193.478 40.2093 194.91 41.641 196.676 41.641H205.248Z"/>
<path d="M295.031 71.0379C295.031 73.6559 294.566 76.1244 293.635 78.4432C292.77 80.6872 291.572 82.6695 290.042 84.3899C288.512 86.1103 286.716 87.4942 284.654 88.5414C282.659 89.5138 280.497 90 278.168 90H274.746C268.921 90 264.199 85.278 264.199 79.453V74.9428C264.199 71.6088 266.902 68.906 270.236 68.906H273.131C274.866 68.906 276.273 67.4995 276.273 65.7644C276.273 64.0293 274.866 62.6227 273.131 62.6227H268.789C264.656 62.6227 261.305 65.9732 261.305 70.1063V80.6206C261.305 85.8007 257.106 90 251.926 90C246.746 90 242.547 85.8007 242.547 80.6206V65.4166C242.547 63.8736 241.296 62.6227 239.753 62.6227C238.21 62.6227 236.959 61.3719 236.959 59.8288V44.3226C236.959 42.7796 238.21 41.5288 239.753 41.5288C241.296 41.5288 242.547 40.2779 242.547 38.7349V38.0393C242.547 36.4963 241.296 35.2454 239.753 35.2454C238.21 35.2454 236.959 33.9946 236.959 32.4516V24.6985C236.959 18.8735 241.681 14.1515 247.506 14.1515H280.012C288.131 14.1515 294.547 21.0354 293.977 29.1344L293.705 32.9921C293.658 33.6632 293.563 34.33 293.42 34.9873L291.03 45.9655C290.389 48.9097 290.715 51.9822 291.959 54.7263L293.781 58.7437C294.605 60.5603 295.031 62.5319 295.031 64.5265V71.0379ZM272.065 43.6606C274.389 43.6606 276.273 41.7768 276.273 39.453C276.273 37.1292 274.389 35.2454 272.065 35.2454H265.513C263.189 35.2454 261.305 37.1292 261.305 39.453C261.305 41.7768 263.189 43.6606 265.513 43.6606H272.065Z"/>
<path d="M304.826 65.4132C304.692 63.876 303.455 62.6227 301.912 62.6227C300.369 62.6227 299.118 61.3719 299.118 59.8288V44.4348C299.118 42.8918 300.369 41.641 301.912 41.641C303.455 41.641 304.706 40.3901 304.706 38.8471V38.0393C304.706 36.4963 303.455 35.2454 301.912 35.2454C300.369 35.2454 299.118 33.9946 299.118 32.4516V24.7546C299.118 18.9606 303.815 14.2637 309.609 14.2637H346.7C352.494 14.2637 357.191 18.9606 357.191 24.7546C357.191 30.5485 352.494 35.2454 346.7 35.2454H327.672C325.348 35.2454 323.464 37.1292 323.464 39.453C323.464 41.7768 325.348 43.6606 327.672 43.6606H336.434C341.67 43.6606 345.915 47.9054 345.915 53.1417C345.915 58.3779 341.67 62.6227 336.434 62.6227H333.236C327.815 62.6227 323.631 69.0182 329.052 69.0182H346.7C352.494 69.0182 357.191 73.7152 357.191 79.5091C357.191 85.3031 352.494 90 346.7 90H329.052C325.726 90 322.566 89.2894 319.573 87.8682C316.646 86.3721 314.085 84.3899 311.89 81.9215C309.695 79.453 307.932 76.5732 306.601 73.2819C305.656 70.7637 305.064 68.1408 304.826 65.4132Z"/>
<path d="M396.516 64.6424C396.516 65.7644 396.649 66.6246 396.915 67.223C397.019 67.4094 397.129 67.5814 397.245 67.7387C397.724 68.3845 398.48 68.776 399.278 68.8701C399.481 68.8941 399.691 68.906 399.909 68.906C401.121 68.906 402.104 69.8889 402.104 71.1012V82.5164C402.104 86.6495 398.753 90 394.62 90C392.292 90 390.097 89.5138 388.035 88.5414C386.039 87.4942 384.276 86.1103 382.746 84.3899C381.216 82.6695 379.986 80.6872 379.054 78.4432C378.19 76.1244 377.757 73.6559 377.757 71.0379V43.677C377.757 39.0204 373.982 35.2454 369.326 35.2454C364.669 35.2454 360.894 31.4705 360.894 26.8139V24.6985C360.894 18.8735 365.616 14.1515 371.441 14.1515H402.732C408.557 14.1515 413.279 18.8735 413.279 24.6985V26.8638C413.279 31.4929 409.527 35.2454 404.898 35.2454C400.269 35.2454 396.516 38.998 396.516 43.6271V64.6424Z"/>
<path d="M437.345 14.2637C438.522 14.2637 439.477 13.3092 439.477 12.1318C439.477 10.9545 440.431 10 441.608 10H456.104C457.281 10 458.235 10.9545 458.235 12.1318C458.235 13.3092 459.19 14.2637 460.367 14.2637H470.195C475.989 14.2637 480.686 18.9606 480.686 24.7546V32.4017C480.686 33.9722 479.413 35.2454 477.843 35.2454C476.272 35.2454 474.999 36.5186 474.999 38.0892V64.7546C474.999 65.8766 475.132 66.7368 475.398 67.3352C475.73 67.9336 476.163 68.3824 476.695 68.6816C477.227 68.906 477.826 69.0182 478.491 69.0182C479.703 69.0182 480.686 70.0011 480.686 71.2134V82.5164C480.686 86.6495 477.336 90 473.203 90C469.344 90 466.285 89.1772 464.023 87.5316C461.828 85.8859 460.131 83.7915 458.934 81.2483C457.803 78.6302 457.071 75.713 456.739 72.4965C456.674 71.6982 456.618 70.8999 456.569 70.1017C456.316 65.9763 452.989 62.6227 448.856 62.6227C444.723 62.6227 441.372 65.9733 441.372 70.1063V71.1501C441.372 73.7681 440.907 76.2366 439.975 78.5554C439.111 80.7994 437.913 82.7817 436.383 84.5021C434.853 86.2225 433.057 87.569 430.995 88.5414C428.933 89.5138 426.771 90 424.509 90C420.321 90 416.926 86.6048 416.926 82.4166V71.2134C416.926 70.0011 417.909 69.0182 419.121 69.0182C419.786 69.0182 420.385 68.906 420.917 68.6816C421.449 68.3824 421.849 67.9336 422.115 67.3352C422.447 66.7368 422.614 65.8766 422.614 64.7546V38.0892C422.614 36.5186 421.34 35.2454 419.77 35.2454C418.199 35.2454 416.926 33.9722 416.926 32.4017V24.7546C416.926 18.9606 421.623 14.2637 427.417 14.2637H437.345ZM453.142 41.641C454.908 41.641 456.34 40.2093 456.34 38.4432C456.34 36.6771 454.908 35.2454 453.142 35.2454H444.57C442.804 35.2454 441.372 36.6771 441.372 38.4432C441.372 40.2093 442.804 41.641 444.57 41.641H453.142Z"/>
<path d="M499.621 14.1515C504.801 14.1515 509 18.3508 509 23.5309V71.0379C509 73.6559 508.534 76.1244 507.603 78.4432C506.738 80.6872 505.541 82.6695 504.011 84.3899C502.481 86.1103 500.685 87.4942 498.623 88.5414C496.627 89.5138 494.465 90 492.137 90C488.004 90 484.653 86.6495 484.653 82.5164V71.0014C484.653 69.8442 485.592 68.906 486.749 68.906C487.48 68.8312 488.079 68.6816 488.545 68.4572C489.077 68.2328 489.476 67.8588 489.742 67.3352C490.075 66.7368 490.241 65.8766 490.241 64.7546V23.5309C490.241 18.3508 494.44 14.1515 499.621 14.1515Z"/>
</mask>
<path d="M148.622 64.6424C148.622 65.7644 148.755 66.6246 149.021 67.223C149.125 67.4094 149.235 67.5814 149.351 67.7387C149.829 68.3845 150.586 68.776 151.384 68.8701C151.587 68.8941 151.797 68.906 152.014 68.906C153.227 68.906 154.21 69.8889 154.21 71.1012V82.5164C154.21 86.6495 150.859 90 146.726 90C144.398 90 142.203 89.5138 140.141 88.5414C138.145 87.4942 136.382 86.1103 134.852 84.3899C133.322 82.6695 132.091 80.6872 131.16 78.4432C130.295 76.1244 129.863 73.6559 129.863 71.0379V43.677C129.863 39.0204 126.088 35.2454 121.432 35.2454C116.775 35.2454 113 31.4705 113 26.8139V24.6985C113 18.8735 117.722 14.1515 123.547 14.1515H154.838C160.663 14.1515 165.385 18.8735 165.385 24.6985V26.8638C165.385 31.4929 161.633 35.2454 157.004 35.2454C152.375 35.2454 148.622 38.998 148.622 43.6271V64.6424Z" fill="#F36B9D"/>
<path d="M189.451 14.2637C190.628 14.2637 191.582 13.3092 191.582 12.1318C191.582 10.9545 192.537 10 193.714 10H208.209C209.387 10 210.341 10.9545 210.341 12.1318C210.341 13.3092 211.296 14.2637 212.473 14.2637H222.301C228.095 14.2637 232.792 18.9606 232.792 24.7546V32.4017C232.792 33.9722 231.519 35.2454 229.948 35.2454C228.378 35.2454 227.105 36.5186 227.105 38.0892V64.7546C227.105 65.8766 227.238 66.7368 227.504 67.3352C227.836 67.9336 228.269 68.3824 228.801 68.6816C229.333 68.906 229.932 69.0182 230.597 69.0182C231.809 69.0182 232.792 70.0011 232.792 71.2134V82.5164C232.792 86.6495 229.442 90 225.309 90C221.45 90 218.39 89.1772 216.129 87.5316C213.933 85.8859 212.237 83.7915 211.04 81.2483C209.909 78.6302 209.177 75.713 208.845 72.4965C208.78 71.6982 208.723 70.8999 208.674 70.1017C208.422 65.9763 205.095 62.6227 200.962 62.6227C196.829 62.6227 193.478 65.9733 193.478 70.1063V71.1501C193.478 73.7681 193.013 76.2366 192.081 78.5554C191.217 80.7994 190.019 82.7817 188.489 84.5021C186.959 86.2225 185.163 87.569 183.101 88.5414C181.039 89.5138 178.877 90 176.615 90C172.427 90 169.032 86.6048 169.032 82.4166V71.2134C169.032 70.0011 170.015 69.0182 171.227 69.0182C171.892 69.0182 172.491 68.906 173.023 68.6816C173.555 68.3824 173.954 67.9336 174.22 67.3352C174.553 66.7368 174.719 65.8766 174.719 64.7546V38.0892C174.719 36.5186 173.446 35.2454 171.876 35.2454C170.305 35.2454 169.032 33.9722 169.032 32.4017V24.7546C169.032 18.9606 173.729 14.2637 179.523 14.2637H189.451ZM205.248 41.641C207.014 41.641 208.445 40.2093 208.445 38.4432C208.445 36.6771 207.014 35.2454 205.248 35.2454H196.676C194.91 35.2454 193.478 36.6771 193.478 38.4432C193.478 40.2093 194.91 41.641 196.676 41.641H205.248Z" fill="#F36B9D"/>
<path d="M295.031 71.0379C295.031 73.6559 294.566 76.1244 293.635 78.4432C292.77 80.6872 291.572 82.6695 290.042 84.3899C288.512 86.1103 286.716 87.4942 284.654 88.5414C282.659 89.5138 280.497 90 278.168 90H274.746C268.921 90 264.199 85.278 264.199 79.453V74.9428C264.199 71.6088 266.902 68.906 270.236 68.906H273.131C274.866 68.906 276.273 67.4995 276.273 65.7644C276.273 64.0293 274.866 62.6227 273.131 62.6227H268.789C264.656 62.6227 261.305 65.9732 261.305 70.1063V80.6206C261.305 85.8007 257.106 90 251.926 90C246.746 90 242.547 85.8007 242.547 80.6206V65.4166C242.547 63.8736 241.296 62.6227 239.753 62.6227C238.21 62.6227 236.959 61.3719 236.959 59.8288V44.3226C236.959 42.7796 238.21 41.5288 239.753 41.5288C241.296 41.5288 242.547 40.2779 242.547 38.7349V38.0393C242.547 36.4963 241.296 35.2454 239.753 35.2454C238.21 35.2454 236.959 33.9946 236.959 32.4516V24.6985C236.959 18.8735 241.681 14.1515 247.506 14.1515H280.012C288.131 14.1515 294.547 21.0354 293.977 29.1344L293.705 32.9921C293.658 33.6632 293.563 34.33 293.42 34.9873L291.03 45.9655C290.389 48.9097 290.715 51.9822 291.959 54.7263L293.781 58.7437C294.605 60.5603 295.031 62.5319 295.031 64.5265V71.0379ZM272.065 43.6606C274.389 43.6606 276.273 41.7768 276.273 39.453C276.273 37.1292 274.389 35.2454 272.065 35.2454H265.513C263.189 35.2454 261.305 37.1292 261.305 39.453C261.305 41.7768 263.189 43.6606 265.513 43.6606H272.065Z" fill="#F36B9D"/>
<path d="M304.826 65.4132C304.692 63.876 303.455 62.6227 301.912 62.6227C300.369 62.6227 299.118 61.3719 299.118 59.8288V44.4348C299.118 42.8918 300.369 41.641 301.912 41.641C303.455 41.641 304.706 40.3901 304.706 38.8471V38.0393C304.706 36.4963 303.455 35.2454 301.912 35.2454C300.369 35.2454 299.118 33.9946 299.118 32.4516V24.7546C299.118 18.9606 303.815 14.2637 309.609 14.2637H346.7C352.494 14.2637 357.191 18.9606 357.191 24.7546C357.191 30.5485 352.494 35.2454 346.7 35.2454H327.672C325.348 35.2454 323.464 37.1292 323.464 39.453C323.464 41.7768 325.348 43.6606 327.672 43.6606H336.434C341.67 43.6606 345.915 47.9054 345.915 53.1417C345.915 58.3779 341.67 62.6227 336.434 62.6227H333.236C327.815 62.6227 323.631 69.0182 329.052 69.0182H346.7C352.494 69.0182 357.191 73.7152 357.191 79.5091C357.191 85.3031 352.494 90 346.7 90H329.052C325.726 90 322.566 89.2894 319.573 87.8682C316.646 86.3721 314.085 84.3899 311.89 81.9215C309.695 79.453 307.932 76.5732 306.601 73.2819C305.656 70.7637 305.064 68.1408 304.826 65.4132Z" fill="#F36B9D"/>
<path d="M396.516 64.6424C396.516 65.7644 396.649 66.6246 396.915 67.223C397.019 67.4094 397.129 67.5814 397.245 67.7387C397.724 68.3845 398.48 68.776 399.278 68.8701C399.481 68.8941 399.691 68.906 399.909 68.906C401.121 68.906 402.104 69.8889 402.104 71.1012V82.5164C402.104 86.6495 398.753 90 394.62 90C392.292 90 390.097 89.5138 388.035 88.5414C386.039 87.4942 384.276 86.1103 382.746 84.3899C381.216 82.6695 379.986 80.6872 379.054 78.4432C378.19 76.1244 377.757 73.6559 377.757 71.0379V43.677C377.757 39.0204 373.982 35.2454 369.326 35.2454C364.669 35.2454 360.894 31.4705 360.894 26.8139V24.6985C360.894 18.8735 365.616 14.1515 371.441 14.1515H402.732C408.557 14.1515 413.279 18.8735 413.279 24.6985V26.8638C413.279 31.4929 409.527 35.2454 404.898 35.2454C400.269 35.2454 396.516 38.998 396.516 43.6271V64.6424Z" fill="#F36B9D"/>
<path d="M437.345 14.2637C438.522 14.2637 439.477 13.3092 439.477 12.1318C439.477 10.9545 440.431 10 441.608 10H456.104C457.281 10 458.235 10.9545 458.235 12.1318C458.235 13.3092 459.19 14.2637 460.367 14.2637H470.195C475.989 14.2637 480.686 18.9606 480.686 24.7546V32.4017C480.686 33.9722 479.413 35.2454 477.843 35.2454C476.272 35.2454 474.999 36.5186 474.999 38.0892V64.7546C474.999 65.8766 475.132 66.7368 475.398 67.3352C475.73 67.9336 476.163 68.3824 476.695 68.6816C477.227 68.906 477.826 69.0182 478.491 69.0182C479.703 69.0182 480.686 70.0011 480.686 71.2134V82.5164C480.686 86.6495 477.336 90 473.203 90C469.344 90 466.285 89.1772 464.023 87.5316C461.828 85.8859 460.131 83.7915 458.934 81.2483C457.803 78.6302 457.071 75.713 456.739 72.4965C456.674 71.6982 456.618 70.8999 456.569 70.1017C456.316 65.9763 452.989 62.6227 448.856 62.6227C444.723 62.6227 441.372 65.9733 441.372 70.1063V71.1501C441.372 73.7681 440.907 76.2366 439.975 78.5554C439.111 80.7994 437.913 82.7817 436.383 84.5021C434.853 86.2225 433.057 87.569 430.995 88.5414C428.933 89.5138 426.771 90 424.509 90C420.321 90 416.926 86.6048 416.926 82.4166V71.2134C416.926 70.0011 417.909 69.0182 419.121 69.0182C419.786 69.0182 420.385 68.906 420.917 68.6816C421.449 68.3824 421.849 67.9336 422.115 67.3352C422.447 66.7368 422.614 65.8766 422.614 64.7546V38.0892C422.614 36.5186 421.34 35.2454 419.77 35.2454C418.199 35.2454 416.926 33.9722 416.926 32.4017V24.7546C416.926 18.9606 421.623 14.2637 427.417 14.2637H437.345ZM453.142 41.641C454.908 41.641 456.34 40.2093 456.34 38.4432C456.34 36.6771 454.908 35.2454 453.142 35.2454H444.57C442.804 35.2454 441.372 36.6771 441.372 38.4432C441.372 40.2093 442.804 41.641 444.57 41.641H453.142Z" fill="#F36B9D"/>
<path d="M499.621 14.1515C504.801 14.1515 509 18.3508 509 23.5309V71.0379C509 73.6559 508.534 76.1244 507.603 78.4432C506.738 80.6872 505.541 82.6695 504.011 84.3899C502.481 86.1103 500.685 87.4942 498.623 88.5414C496.627 89.5138 494.465 90 492.137 90C488.004 90 484.653 86.6495 484.653 82.5164V71.0014C484.653 69.8442 485.592 68.906 486.749 68.906C487.48 68.8312 488.079 68.6816 488.545 68.4572C489.077 68.2328 489.476 67.8588 489.742 67.3352C490.075 66.7368 490.241 65.8766 490.241 64.7546V23.5309C490.241 18.3508 494.44 14.1515 499.621 14.1515Z" fill="#F36B9D"/>
<path d="M148.622 64.6424C148.622 65.7644 148.755 66.6246 149.021 67.223C149.125 67.4094 149.235 67.5814 149.351 67.7387C149.829 68.3845 150.586 68.776 151.384 68.8701C151.587 68.8941 151.797 68.906 152.014 68.906C153.227 68.906 154.21 69.8889 154.21 71.1012V82.5164C154.21 86.6495 150.859 90 146.726 90C144.398 90 142.203 89.5138 140.141 88.5414C138.145 87.4942 136.382 86.1103 134.852 84.3899C133.322 82.6695 132.091 80.6872 131.16 78.4432C130.295 76.1244 129.863 73.6559 129.863 71.0379V43.677C129.863 39.0204 126.088 35.2454 121.432 35.2454C116.775 35.2454 113 31.4705 113 26.8139V24.6985C113 18.8735 117.722 14.1515 123.547 14.1515H154.838C160.663 14.1515 165.385 18.8735 165.385 24.6985V26.8638C165.385 31.4929 161.633 35.2454 157.004 35.2454C152.375 35.2454 148.622 38.998 148.622 43.6271V64.6424Z" stroke="black" stroke-width="2" mask="url(#path-1-outside-1_1_26)"/>
<path d="M189.451 14.2637C190.628 14.2637 191.582 13.3092 191.582 12.1318C191.582 10.9545 192.537 10 193.714 10H208.209C209.387 10 210.341 10.9545 210.341 12.1318C210.341 13.3092 211.296 14.2637 212.473 14.2637H222.301C228.095 14.2637 232.792 18.9606 232.792 24.7546V32.4017C232.792 33.9722 231.519 35.2454 229.948 35.2454C228.378 35.2454 227.105 36.5186 227.105 38.0892V64.7546C227.105 65.8766 227.238 66.7368 227.504 67.3352C227.836 67.9336 228.269 68.3824 228.801 68.6816C229.333 68.906 229.932 69.0182 230.597 69.0182C231.809 69.0182 232.792 70.0011 232.792 71.2134V82.5164C232.792 86.6495 229.442 90 225.309 90C221.45 90 218.39 89.1772 216.129 87.5316C213.933 85.8859 212.237 83.7915 211.04 81.2483C209.909 78.6302 209.177 75.713 208.845 72.4965C208.78 71.6982 208.723 70.8999 208.674 70.1017C208.422 65.9763 205.095 62.6227 200.962 62.6227C196.829 62.6227 193.478 65.9733 193.478 70.1063V71.1501C193.478 73.7681 193.013 76.2366 192.081 78.5554C191.217 80.7994 190.019 82.7817 188.489 84.5021C186.959 86.2225 185.163 87.569 183.101 88.5414C181.039 89.5138 178.877 90 176.615 90C172.427 90 169.032 86.6048 169.032 82.4166V71.2134C169.032 70.0011 170.015 69.0182 171.227 69.0182C171.892 69.0182 172.491 68.906 173.023 68.6816C173.555 68.3824 173.954 67.9336 174.22 67.3352C174.553 66.7368 174.719 65.8766 174.719 64.7546V38.0892C174.719 36.5186 173.446 35.2454 171.876 35.2454C170.305 35.2454 169.032 33.9722 169.032 32.4017V24.7546C169.032 18.9606 173.729 14.2637 179.523 14.2637H189.451ZM205.248 41.641C207.014 41.641 208.445 40.2093 208.445 38.4432C208.445 36.6771 207.014 35.2454 205.248 35.2454H196.676C194.91 35.2454 193.478 36.6771 193.478 38.4432C193.478 40.2093 194.91 41.641 196.676 41.641H205.248Z" stroke="black" stroke-width="2" mask="url(#path-1-outside-1_1_26)"/>
<path d="M295.031 71.0379C295.031 73.6559 294.566 76.1244 293.635 78.4432C292.77 80.6872 291.572 82.6695 290.042 84.3899C288.512 86.1103 286.716 87.4942 284.654 88.5414C282.659 89.5138 280.497 90 278.168 90H274.746C268.921 90 264.199 85.278 264.199 79.453V74.9428C264.199 71.6088 266.902 68.906 270.236 68.906H273.131C274.866 68.906 276.273 67.4995 276.273 65.7644C276.273 64.0293 274.866 62.6227 273.131 62.6227H268.789C264.656 62.6227 261.305 65.9732 261.305 70.1063V80.6206C261.305 85.8007 257.106 90 251.926 90C246.746 90 242.547 85.8007 242.547 80.6206V65.4166C242.547 63.8736 241.296 62.6227 239.753 62.6227C238.21 62.6227 236.959 61.3719 236.959 59.8288V44.3226C236.959 42.7796 238.21 41.5288 239.753 41.5288C241.296 41.5288 242.547 40.2779 242.547 38.7349V38.0393C242.547 36.4963 241.296 35.2454 239.753 35.2454C238.21 35.2454 236.959 33.9946 236.959 32.4516V24.6985C236.959 18.8735 241.681 14.1515 247.506 14.1515H280.012C288.131 14.1515 294.547 21.0354 293.977 29.1344L293.705 32.9921C293.658 33.6632 293.563 34.33 293.42 34.9873L291.03 45.9655C290.389 48.9097 290.715 51.9822 291.959 54.7263L293.781 58.7437C294.605 60.5603 295.031 62.5319 295.031 64.5265V71.0379ZM272.065 43.6606C274.389 43.6606 276.273 41.7768 276.273 39.453C276.273 37.1292 274.389 35.2454 272.065 35.2454H265.513C263.189 35.2454 261.305 37.1292 261.305 39.453C261.305 41.7768 263.189 43.6606 265.513 43.6606H272.065Z" stroke="black" stroke-width="2" mask="url(#path-1-outside-1_1_26)"/>
<path d="M304.826 65.4132C304.692 63.876 303.455 62.6227 301.912 62.6227C300.369 62.6227 299.118 61.3719 299.118 59.8288V44.4348C299.118 42.8918 300.369 41.641 301.912 41.641C303.455 41.641 304.706 40.3901 304.706 38.8471V38.0393C304.706 36.4963 303.455 35.2454 301.912 35.2454C300.369 35.2454 299.118 33.9946 299.118 32.4516V24.7546C299.118 18.9606 303.815 14.2637 309.609 14.2637H346.7C352.494 14.2637 357.191 18.9606 357.191 24.7546C357.191 30.5485 352.494 35.2454 346.7 35.2454H327.672C325.348 35.2454 323.464 37.1292 323.464 39.453C323.464 41.7768 325.348 43.6606 327.672 43.6606H336.434C341.67 43.6606 345.915 47.9054 345.915 53.1417C345.915 58.3779 341.67 62.6227 336.434 62.6227H333.236C327.815 62.6227 323.631 69.0182 329.052 69.0182H346.7C352.494 69.0182 357.191 73.7152 357.191 79.5091C357.191 85.3031 352.494 90 346.7 90H329.052C325.726 90 322.566 89.2894 319.573 87.8682C316.646 86.3721 314.085 84.3899 311.89 81.9215C309.695 79.453 307.932 76.5732 306.601 73.2819C305.656 70.7637 305.064 68.1408 304.826 65.4132Z" stroke="black" stroke-width="2" mask="url(#path-1-outside-1_1_26)"/>
<path d="M396.516 64.6424C396.516 65.7644 396.649 66.6246 396.915 67.223C397.019 67.4094 397.129 67.5814 397.245 67.7387C397.724 68.3845 398.48 68.776 399.278 68.8701C399.481 68.8941 399.691 68.906 399.909 68.906C401.121 68.906 402.104 69.8889 402.104 71.1012V82.5164C402.104 86.6495 398.753 90 394.62 90C392.292 90 390.097 89.5138 388.035 88.5414C386.039 87.4942 384.276 86.1103 382.746 84.3899C381.216 82.6695 379.986 80.6872 379.054 78.4432C378.19 76.1244 377.757 73.6559 377.757 71.0379V43.677C377.757 39.0204 373.982 35.2454 369.326 35.2454C364.669 35.2454 360.894 31.4705 360.894 26.8139V24.6985C360.894 18.8735 365.616 14.1515 371.441 14.1515H402.732C408.557 14.1515 413.279 18.8735 413.279 24.6985V26.8638C413.279 31.4929 409.527 35.2454 404.898 35.2454C400.269 35.2454 396.516 38.998 396.516 43.6271V64.6424Z" stroke="black" stroke-width="2" mask="url(#path-1-outside-1_1_26)"/>
<path d="M437.345 14.2637C438.522 14.2637 439.477 13.3092 439.477 12.1318C439.477 10.9545 440.431 10 441.608 10H456.104C457.281 10 458.235 10.9545 458.235 12.1318C458.235 13.3092 459.19 14.2637 460.367 14.2637H470.195C475.989 14.2637 480.686 18.9606 480.686 24.7546V32.4017C480.686 33.9722 479.413 35.2454 477.843 35.2454C476.272 35.2454 474.999 36.5186 474.999 38.0892V64.7546C474.999 65.8766 475.132 66.7368 475.398 67.3352C475.73 67.9336 476.163 68.3824 476.695 68.6816C477.227 68.906 477.826 69.0182 478.491 69.0182C479.703 69.0182 480.686 70.0011 480.686 71.2134V82.5164C480.686 86.6495 477.336 90 473.203 90C469.344 90 466.285 89.1772 464.023 87.5316C461.828 85.8859 460.131 83.7915 458.934 81.2483C457.803 78.6302 457.071 75.713 456.739 72.4965C456.674 71.6982 456.618 70.8999 456.569 70.1017C456.316 65.9763 452.989 62.6227 448.856 62.6227C444.723 62.6227 441.372 65.9733 441.372 70.1063V71.1501C441.372 73.7681 440.907 76.2366 439.975 78.5554C439.111 80.7994 437.913 82.7817 436.383 84.5021C434.853 86.2225 433.057 87.569 430.995 88.5414C428.933 89.5138 426.771 90 424.509 90C420.321 90 416.926 86.6048 416.926 82.4166V71.2134C416.926 70.0011 417.909 69.0182 419.121 69.0182C419.786 69.0182 420.385 68.906 420.917 68.6816C421.449 68.3824 421.849 67.9336 422.115 67.3352C422.447 66.7368 422.614 65.8766 422.614 64.7546V38.0892C422.614 36.5186 421.34 35.2454 419.77 35.2454C418.199 35.2454 416.926 33.9722 416.926 32.4017V24.7546C416.926 18.9606 421.623 14.2637 427.417 14.2637H437.345ZM453.142 41.641C454.908 41.641 456.34 40.2093 456.34 38.4432C456.34 36.6771 454.908 35.2454 453.142 35.2454H444.57C442.804 35.2454 441.372 36.6771 441.372 38.4432C441.372 40.2093 442.804 41.641 444.57 41.641H453.142Z" stroke="black" stroke-width="2" mask="url(#path-1-outside-1_1_26)"/>
<path d="M499.621 14.1515C504.801 14.1515 509 18.3508 509 23.5309V71.0379C509 73.6559 508.534 76.1244 507.603 78.4432C506.738 80.6872 505.541 82.6695 504.011 84.3899C502.481 86.1103 500.685 87.4942 498.623 88.5414C496.627 89.5138 494.465 90 492.137 90C488.004 90 484.653 86.6495 484.653 82.5164V71.0014C484.653 69.8442 485.592 68.906 486.749 68.906C487.48 68.8312 488.079 68.6816 488.545 68.4572C489.077 68.2328 489.476 67.8588 489.742 67.3352C490.075 66.7368 490.241 65.8766 490.241 64.7546V23.5309C490.241 18.3508 494.44 14.1515 499.621 14.1515Z" stroke="black" stroke-width="2" mask="url(#path-1-outside-1_1_26)"/>
<path d="M44.9245 6.95452C47.5539 3.75935 52.4461 3.75935 55.0755 6.95452C57.2655 9.61572 60.9761 10.4626 64.1038 9.01518C67.8592 7.27728 72.267 9.39995 73.2496 13.4196C74.0681 16.7674 77.0437 19.1404 80.4898 19.1934C84.6273 19.257 87.6775 23.0819 86.8189 27.1298C86.1037 30.5012 87.755 33.9303 90.8368 35.4732C94.537 37.3257 95.6256 42.0953 93.0956 45.3697C90.9885 48.097 90.9885 51.903 93.0956 54.6303C95.6256 57.9047 94.537 62.6743 90.8368 64.5268C87.755 66.0697 86.1037 69.4988 86.8189 72.8702C87.6775 76.9181 84.6273 80.743 80.4898 80.8066C77.0437 80.8596 74.0681 83.2326 73.2496 86.5805C72.267 90.6 67.8592 92.7227 64.1038 90.9848C60.9761 89.5374 57.2655 90.3843 55.0755 93.0455C52.4461 96.2407 47.5539 96.2407 44.9245 93.0455C42.7345 90.3843 39.0239 89.5374 35.8962 90.9848C32.1408 92.7227 27.733 90.6 26.7504 86.5805C25.9319 83.2326 22.9563 80.8596 19.5102 80.8066C15.3727 80.743 12.3225 76.9181 13.1812 72.8702C13.8963 69.4988 12.245 66.0697 9.16317 64.5268C5.46302 62.6743 4.37438 57.9047 6.90435 54.6303C9.01152 51.903 9.01152 48.097 6.90435 45.3697C4.37439 42.0953 5.46302 37.3257 9.16317 35.4732C12.245 33.9303 13.8963 30.5012 13.1812 27.1298C12.3225 23.0819 15.3727 19.257 19.5102 19.1934C22.9563 19.1404 25.9319 16.7674 26.7504 13.4196C27.733 9.39995 32.1408 7.27728 35.8962 9.01518C39.0239 10.4626 42.7345 9.61572 44.9245 6.95452Z" fill="white" stroke="black"/>
<path d="M56.2105 55.0752V50.2541C56.2105 45.8574 52.6463 42.2932 48.2497 42.2932V42.2932C44.7218 42.2932 41.6147 44.6151 40.6151 47.9984L39.5112 51.7347C38.2086 56.1437 39.2985 60.9129 42.3872 64.3183L44.1073 66.2148C48.9134 71.5139 56.4747 73.3282 63.162 70.787V70.787C68.0415 68.9328 71.8298 64.9844 73.4804 60.0323L74.4877 57.0104C76.5023 50.9668 75.9843 44.365 73.0518 38.7095V38.7095C69.3516 31.5733 62.2692 26.8153 54.2637 26.0875L53.5219 26.0201C46.3885 25.3716 39.321 27.823 34.1212 32.7491L33.3369 33.492C29.8507 36.7948 27.2843 41.0001 25.92 45.6045V45.6045C23.4637 53.8948 24.9836 62.9343 30.0715 69.9253L33.7647 75" stroke="#F36B9D" stroke-width="4.70588" stroke-linecap="round"/>
</svg>
